<svg xmlns="http://www.w3.org/2000/svg" enable-background="new 0 0 50 50">g>
  <g>
    <path fill="grba(255,255,255,1)" d="M50,45.1c0,3-2.4,5.5-5.3,5.5H5.3c-2.9,0-5.3-2.5-5.3-5.5V15.7c0-3,2.4-5.5,5.3-5.5h39.4c2.9,0,5.3,2.5,5.3,5.5L50,45.1
      L50,45.1z M46.9,15.7c0-1.3-1-2.3-2.3-2.3H5.3c-1.2,0-2.3,1-2.3,2.3v29.3c0,1.3,1,2.3,2.3,2.3h39.4c1.2,0,2.3-1,2.3-2.3L46.9,15.7
      L46.9,15.7z"/>
  </g>
  <g>
    <path fill="grba(255,255,255,1)" d="M31.6,13.4c-0.8,0-1.5-0.7-1.5-1.6V4.9c0-1.4-1.8-1.7-2.8-1.7h-5.5c-0.2,0-1.7,0-1.7,1.7v6.9c0,0.9-0.7,1.6-1.5,1.6
      c-0.8,0-1.5-0.7-1.5-1.6V4.9c0-2.8,1.6-4.9,4.8-4.9h5.5c3.1,0,5.9,2,5.9,4.9v6.9C33.1,12.7,32.4,13.4,31.6,13.4z"/>
  </g>
  <g>
    <path fill="grba(255,255,255,1)" d="M20.1,30.8h-10c-0.4,0-0.8-0.4-0.8-0.8s0.3-0.8,0.8-0.8h10c0.4,0,0.8,0.4,0.8,0.8S20.5,30.8,20.1,30.8z"/>
  </g>
  <g>
    <path fill="grba(255,255,255,1)" d="M5.5,30.8H1.6c-0.4,0-0.8-0.4-0.8-0.8s0.3-0.8,0.8-0.8h3.8c0.4,0,0.8,0.4,0.8,0.8S5.9,30.8,5.5,30.8z"/>
  </g>
  <g>
    <path fill="grba(255,255,255,1)" d="M48.6,30.8H29.3c-0.4,0-0.8-0.4-0.8-0.8s0.3-0.8,0.8-0.8h19.2c0.4,0,0.8,0.4,0.8,0.8S49,30.8,48.6,30.8z"/>
  </g>
  <g>
    <path fill="grba(255,255,255,1)" d="M30,32.3c0,1.8-1.4,3.2-3.1,3.2h-3.7c-1.7,0-3.1-1.4-3.1-3.2v-3.8c0-1.8,1.4-3.2,3.1-3.2h3.7c1.7,0,3.1,1.4,3.1,3.2
      L30,32.3L30,32.3z M28.5,28.5c0-0.9-0.7-1.6-1.6-1.6h-3.7c-0.9,0-1.6,0.7-1.6,1.6v3.8c0,0.9,0.7,1.6,1.6,1.6h3.7
      c0.9,0,1.6-0.7,1.6-1.6L28.5,28.5L28.5,28.5z"/>
  </g>
</g></svg>