<?xml version="1.0" encoding="utf-8"?>
<!-- Generator: Adobe Illustrator 18.0.0, SVG Export Plug-In . SVG Version: 6.00 Build 0)  -->
<!DOCTYPE svg PUBLIC "-//W3C//DTD SVG 1.1//EN" "http://www.w3.org/Graphics/SVG/1.1/DTD/svg11.dtd">
<svg version="1.1" id="Layer_1" xmlns="http://www.w3.org/2000/svg" xmlns:xlink="http://www.w3.org/1999/xlink" x="0px" y="0px"
	 viewBox="761 359 100 100" enable-background="new 761 359 100 100" xml:space="preserve">
<g>
	<polygon fill="#FFFFFF" points="792.6,426.3 806.5,426.3 806.5,429.4 792.6,429.4 792.6,432.2 836.4,432.2 836.4,429.4 
		820.3,429.4 820.3,426.3 838.3,426.3 838.3,418.9 792.6,418.9 	"/>
	<polygon fill="#FFFFFF" points="780.3,382 846.9,382 846.9,408.5 852.7,408.5 852.7,376.2 774.7,376.2 774.7,394.1 780.3,394.1 	
		"/>
	<path fill="#FFFFFF" d="M761,440.5h29.7v-44.7H761V440.5z M776.5,438.2c-0.8,0-1.4-0.6-1.4-1.4c0-0.8,0.6-1.4,1.4-1.4
		s1.4,0.6,1.4,1.4C777.9,437.6,777.3,438.2,776.5,438.2z M765.3,400.2h21.1v32.9h-21.1V400.2z"/>
	<path fill="#FFFFFF" d="M840.2,410.3v31.5H861v-31.5H840.2z M851.1,411.6c0.3,0,0.5,0.2,0.5,0.5s-0.2,0.5-0.5,0.5
		c-0.3,0-0.5-0.2-0.5-0.5S850.8,411.6,851.1,411.6z M848.4,413.2h5.4v0.5h-5.4V413.2z M850.9,440.3c-0.6,0-1.1-0.5-1.1-1.1
		c0-0.6,0.5-1.1,1.1-1.1s1.1,0.5,1.1,1.1C852.1,439.8,851.6,440.3,850.9,440.3z M858.1,436.6c-4.8,0-12.3,0-14.7,0v-21.6h14.7V436.6
		z"/>
</g>
</svg>
