<?xml version="1.0" encoding="utf-8"?>
<!-- Generator: Adobe Illustrator 18.0.0, SVG Export Plug-In . SVG Version: 6.00 Build 0)  -->
<!DOCTYPE svg PUBLIC "-//W3C//DTD SVG 1.1//EN" "http://www.w3.org/Graphics/SVG/1.1/DTD/svg11.dtd">
<svg version="1.1" id="Layer_1" xmlns="http://www.w3.org/2000/svg" xmlns:xlink="http://www.w3.org/1999/xlink" x="0px" y="0px"
	 viewBox="33.3 69.2 20 20" enable-background="new 33.3 69.2 20 20" xml:space="preserve">
<path d="M33.3,85.5c0.3,0,0.6,0.1,1,0.1c1.9,0,3.6-0.6,5.1-1.8c-0.9,0-1.7-0.3-2.4-0.8c-0.7-0.5-1.2-1.2-1.4-2
	c0.3,0,0.5,0.1,0.8,0.1c0.4,0,0.7,0,1.1-0.1c-0.9-0.2-1.7-0.7-2.4-1.4c-0.6-0.7-0.9-1.6-0.9-2.6v-0.1c0.6,0.3,1.2,0.5,1.9,0.5
	c-0.6-0.4-1-0.9-1.3-1.5c-0.3-0.6-0.5-1.3-0.5-2c0-0.7,0.2-1.4,0.6-2.1c1,1.3,2.3,2.3,3.7,3c1.5,0.8,3,1.2,4.7,1.3
	C43,75.8,43,75.5,43,75.2c0-1.1,0.4-2.1,1.2-2.9c0.8-0.8,1.8-1.2,2.9-1.2c1.2,0,2.2,0.4,3,1.3c0.9-0.2,1.8-0.5,2.6-1
	c-0.3,1-0.9,1.7-1.8,2.3c0.8-0.1,1.6-0.3,2.4-0.6c-0.6,0.8-1.3,1.5-2.1,2.1c0,0.1,0,0.3,0,0.5c0,1.1-0.2,2.2-0.5,3.3
	c-0.3,1.1-0.8,2.1-1.5,3.2c-0.7,1-1.4,1.9-2.3,2.7c-0.9,0.8-2,1.4-3.3,1.9c-1.3,0.5-2.6,0.7-4.1,0.7C37.3,87.4,35.2,86.8,33.3,85.5z
	"/>
</svg>
