<?xml version="1.0" encoding="utf-8"?>
<!-- Generator: Adobe Illustrator 18.0.0, SVG Export Plug-In . SVG Version: 6.00 Build 0)  -->
<!DOCTYPE svg PUBLIC "-//W3C//DTD SVG 1.1//EN" "http://www.w3.org/Graphics/SVG/1.1/DTD/svg11.dtd">
<svg version="1.1" id="Layer_1" xmlns="http://www.w3.org/2000/svg" xmlns:xlink="http://www.w3.org/1999/xlink" x="0px" y="0px"
	 viewBox="0 37.1 20 20" enable-background="new 0 37.1 20 20" xml:space="preserve">
<path d="M0,39.8c0-0.6,0.2-1.2,0.7-1.6s1-0.6,1.8-0.6s1.3,0.2,1.7,0.6c0.4,0.4,0.7,0.9,0.7,1.6
	c0,0.6-0.2,1.2-0.7,1.6c-0.4,0.4-1,0.6-1.8,0.6h0c-0.7,0-1.3-0.2-1.7-0.6C0.2,40.9,0,40.4,0,39.8z M0.3,56.6V43.7h4.3v12.8H0.3z
	 M6.9,56.6c0-3.4,0-6.2,0-8.4s0-3.4,0-3.8l0-0.6h4.3v1.9h0c0.2-0.3,0.4-0.5,0.5-0.7s0.4-0.4,0.7-0.7c0.3-0.2,0.7-0.4,1.1-0.6
	c0.4-0.1,0.9-0.2,1.5-0.2c1.5,0,2.7,0.5,3.6,1.5c0.9,1,1.4,2.4,1.4,4.3v7.4h-4.3v-6.9c0-0.9-0.2-1.6-0.5-2.1s-0.9-0.8-1.6-0.8
	c-0.5,0-1,0.1-1.4,0.4s-0.6,0.7-0.8,1.1c-0.1,0.3-0.1,0.6-0.1,1v7.2H6.9z"/>
</svg>
