<?xml version="1.0" encoding="utf-8"?>
<!-- Generator: Adobe Illustrator 18.0.0, SVG Export Plug-In . SVG Version: 6.00 Build 0)  -->
<!DOCTYPE svg PUBLIC "-//W3C//DTD SVG 1.1//EN" "http://www.w3.org/Graphics/SVG/1.1/DTD/svg11.dtd">
<svg version="1.1" id="Layer_1" xmlns="http://www.w3.org/2000/svg" xmlns:xlink="http://www.w3.org/1999/xlink" x="0px" y="0px"
	 viewBox="214 230 20 20" enable-background="new 214 230 20 20" xml:space="preserve" cursor="pointer">
<path d="M214,246.1v-8.9c0.3,0.4,0.7,0.7,1.1,1c2.7,1.8,4.5,3.1,5.5,3.9c0.4,0.3,0.8,0.6,1,0.7
	c0.3,0.2,0.6,0.4,1.1,0.5c0.4,0.2,0.8,0.3,1.2,0.3h0c0.4,0,0.8-0.1,1.2-0.3c0.4-0.2,0.8-0.4,1.1-0.5c0.3-0.2,0.6-0.4,1-0.7
	c1.3-0.9,3.1-2.2,5.6-3.9c0.4-0.3,0.8-0.6,1.1-1v8.9c0,0.5-0.2,0.9-0.5,1.3c-0.3,0.3-0.8,0.5-1.3,0.5h-16.4c-0.5,0-0.9-0.2-1.3-0.5
	C214.2,247,214,246.6,214,246.1z M214,234.2c0-0.6,0.2-1.1,0.5-1.5c0.3-0.4,0.7-0.6,1.3-0.6h16.4c0.5,0,0.9,0.2,1.3,0.5
	c0.4,0.3,0.5,0.8,0.5,1.3c0,0.6-0.2,1.1-0.5,1.7c-0.4,0.5-0.8,1-1.4,1.4c-2.8,1.9-4.5,3.2-5.2,3.6c-0.1,0.1-0.2,0.2-0.5,0.3
	c-0.2,0.2-0.4,0.3-0.6,0.4c-0.2,0.1-0.4,0.2-0.6,0.4s-0.4,0.2-0.6,0.3c-0.2,0.1-0.4,0.1-0.6,0.1h0c-0.2,0-0.4,0-0.6-0.1
	c-0.2-0.1-0.4-0.2-0.6-0.3s-0.4-0.3-0.6-0.4c-0.2-0.1-0.4-0.2-0.6-0.4c-0.2-0.2-0.4-0.3-0.5-0.3c-0.7-0.5-1.7-1.2-2.9-2
	c-1.3-0.9-2-1.4-2.3-1.6c-0.5-0.3-0.9-0.7-1.3-1.3S214,234.6,214,234.2z"/>
</svg>
