<?xml version="1.0" encoding="utf-8"?>
<!-- Generator: Adobe Illustrator 18.0.0, SVG Export Plug-In . SVG Version: 6.00 Build 0)  -->
<!DOCTYPE svg PUBLIC "-//W3C//DTD SVG 1.1//EN" "http://www.w3.org/Graphics/SVG/1.1/DTD/svg11.dtd">
<svg version="1.1" id="Layer_1" xmlns="http://www.w3.org/2000/svg" xmlns:xlink="http://www.w3.org/1999/xlink" x="0px" y="0px"
	 viewBox="214 214 20 20" enable-background="new 214 214 20 20" xml:space="preserve">
<path d="M214.8,231.1c0-1.2,0.7-2.1,2-2.5v0c-0.5-0.3-0.7-0.8-0.7-1.4c0-0.8,0.2-1.3,0.7-1.5v0
	c-0.5-0.2-1-0.6-1.3-1.2s-0.5-1.2-0.5-1.8c0-1,0.4-1.9,1.1-2.6c0.7-0.7,1.6-1,2.6-1c0.7,0,1.4,0.2,2,0.5c0.7,0,1.5-0.2,2.4-0.5v2.3
	c-0.3,0.1-0.6,0.2-0.9,0.2c0.1,0.3,0.2,0.6,0.2,0.9c0,0.9-0.3,1.8-0.8,2.4s-1.3,1.1-2.2,1.3c-0.3,0.1-0.5,0.2-0.7,0.3
	c-0.1,0.1-0.2,0.4-0.2,0.6c0,0.2,0.1,0.4,0.3,0.6c0.2,0.2,0.4,0.3,0.6,0.4c0.3,0.1,0.6,0.2,0.9,0.2c0.3,0.1,0.6,0.2,1,0.3
	c0.3,0.1,0.6,0.3,0.9,0.4c0.3,0.2,0.5,0.4,0.6,0.7c0.2,0.3,0.3,0.7,0.3,1.1c0,2.3-1.4,3.4-4.1,3.4c-0.5,0-1,0-1.5-0.1
	c-0.5-0.1-0.9-0.2-1.3-0.5c-0.4-0.2-0.7-0.5-1-0.9C214.9,232.1,214.8,231.6,214.8,231.1z M217,230.9c0,0.8,0.6,1.1,1.9,1.1
	c1.1,0,1.7-0.4,1.7-1.2c0-0.7-0.6-1.1-1.8-1.1C217.6,229.8,217,230.2,217,230.9z M217.3,222.5c0,1,0.5,1.5,1.4,1.5
	c0.9,0,1.3-0.5,1.3-1.5c0-0.5-0.1-0.8-0.3-1.1c-0.2-0.3-0.6-0.5-1-0.5C217.7,220.9,217.3,221.4,217.3,222.5z M223.8,215.6
	c0-0.4,0.1-0.8,0.4-1.1s0.7-0.5,1.1-0.5c0.4,0,0.8,0.2,1.1,0.5s0.4,0.7,0.4,1.1s-0.1,0.8-0.4,1.1s-0.6,0.5-1.1,0.5
	c-0.4,0-0.8-0.2-1.1-0.5S223.8,216.1,223.8,215.6z M224.1,228.7c0-0.3,0-0.8,0-1.5v-6.8c0-0.7,0-1.2,0-1.4h2.5c0,0.2,0,0.7,0,1.4
	v6.8c0,0.7,0,1.2,0,1.5H224.1z M227.6,221.1V219h1.1v-0.8c0-0.4,0-0.7-0.1-1h2.5c0,0.3-0.1,0.9-0.1,1.8h1.9v2.1c-0.1,0-0.3,0-0.5,0
	c-0.2,0-0.4,0-0.5,0h-0.9v4.1c0,1,0.3,1.5,1,1.5c0.5,0,0.9-0.1,1.2-0.4v2.2c-0.5,0.3-1.2,0.4-1.9,0.4c-0.5,0-0.9-0.1-1.2-0.2
	c-0.3-0.1-0.6-0.3-0.8-0.6c-0.2-0.2-0.3-0.5-0.4-0.9s-0.2-0.7-0.2-1c0-0.3,0-0.7,0-1.1v-3.9h0v0c-0.1,0-0.1,0-0.2,0
	c-0.1,0-0.2,0-0.2,0C228.1,221,227.9,221,227.6,221.1z"/>
</svg>
